# xmcd CD database file
#
# Track frame offsets:
#	150
#	16599
#	31522
#	56421
#	71555
#	87857
#	106563
#	123868
#	141774
#	163593
#	185610
#	205942
#	226227
#	241267
#	258053
#	273865
#
# Disc length: 3885 seconds
#
# Revision: 6
# Processed by: cddbd v1.5.2PL0 Copyright (c) Steve Scherf et al.
# Submitted via: CDex 1.50Beta7
#
DISCID=bc0f2b10
DTITLE=Modern Talking - America
DYEAR=2001
DGENRE=Pop
TTITLE0=Win The Race
TTITLE1=Last Exit To Brooklyn
TTITLE2=Maria
TTITLE3=Sms To My Heart
TTITLE4=Cinderella Girl
TTITLE5=Why Does It Feel So Good
TTITLE6=Rain In My Heart
TTITLE7=Witchqueen Of Eldorado
TTITLE8=Run To You
TTITLE9=America
TTITLE10=For A Life Time
TTITLE11=From Coast To Coast
TTITLE12=There's Something In The Air
TTITLE13=I Need You Now
TTITLE14=New York City Girl
TTITLE15=Send Me A Letter From Heaven
EXTD=YEAR: 2001
EXTT0=
EXTT1=
EXTT2=
EXTT3=
EXTT4=
EXTT5=
EXTT6=
EXTT7=
EXTT8=
EXTT9=
EXTT10=
EXTT11=
EXTT12=
EXTT13=
EXTT14=
EXTT15=
PLAYORDER=
